# MagicaVoxel @ Ephtracy

# group
o 

# material
mtllib Badboy_Enemy.mtl
usemtl palette

# normals
vn -1 0 0
vn 1 0 0
vn 0 0 -1
vn 0 0 1
vn 0 -1 0
vn 0 1 0

# texcoords
vt 0.0214844 0.5
vt 0.0332031 0.5
vt 0.0917969 0.5
vt 0.228516 0.5
vt 0.232422 0.5
vt 0.537109 0.5
vt 0.849609 0.5
vt 0.962891 0.5
vt 0.982422 0.5
vt 0.986328 0.5
vt 0.990234 0.5

# verts
v -0.6 0.8 0
v -0.6 0.8 0.1
v -0.6 0.9 -0.1
v -0.6 0.9 0
v -0.6 0.9 0.1
v -0.6 0.9 0.2
v -0.6 1 0
v -0.6 1 0.1
v -0.6 1.4 0
v -0.6 1.4 0.1
v -0.6 1.5 -0.1
v -0.6 1.5 0.2
v -0.5 1.5 -0.1
v -0.5 1.5 0.2
v -0.5 1.6 -0.1
v -0.5 1.6 0.2
v -0.4 0.5 -0.1
v -0.4 0.5 0.2
v -0.4 0.6 -0.2
v -0.4 0.6 -0.1
v -0.4 0.6 0.2
v -0.4 0.6 0.3
v -0.4 0.8 0
v -0.4 0.8 0.1
v -0.4 0.9 -0.1
v -0.4 0.9 0
v -0.4 0.9 0.1
v -0.4 0.9 0.2
v -0.4 1 -0.1
v -0.4 1 0.2
v -0.4 1.5 -0.1
v -0.4 1.5 0.2
v -0.4 1.6 -0.2
v -0.4 1.6 -0.1
v -0.4 1.6 0.2
v -0.4 1.6 0.3
v -0.4 1.7 -0.3
v -0.4 1.7 -0.2
v -0.4 1.7 0
v -0.4 1.8 -0.2
v -0.4 1.8 -0.1
v -0.4 1.8 0
v -0.4 1.8 0.3
v -0.4 2 -0.3
v -0.4 2 -0.1
v -0.4 2.3 -0.6
v -0.4 2.3 -0.3
v -0.4 2.3 0.2
v -0.4 2.3 0.3
v -0.4 2.4 -0.6
v -0.4 2.4 0.2
v -0.3 0 -0.2
v -0.3 0 0.2
v -0.3 0.1 -0.2
v -0.3 0.1 -0.1
v -0.3 0.1 0.2
v -0.3 0.5 -0.2
v -0.3 0.5 -0.1
v -0.3 0.5 0.2
v -0.3 0.5 0.3
v -0.3 0.6 -0.2
v -0.3 0.6 -0.1
v -0.3 0.6 0.2
v -0.3 0.6 0.3
v -0.3 1.6 -0.2
v -0.3 1.6 -0.1
v -0.3 1.6 0.2
v -0.3 1.6 0.3
v -0.3 1.7 -0.2
v -0.3 1.7 -0.1
v -0.3 1.7 0
v -0.3 1.7 0.2
v -0.3 1.7 0.3
v -0.3 1.8 0
v -0.3 1.8 0.3
v -0.3 1.8 0.4
v -0.3 2.2 -0.6
v -0.3 2.2 -0.3
v -0.3 2.3 -0.6
v -0.3 2.3 -0.3
v -0.3 2.3 0.2
v -0.3 2.3 0.3
v -0.3 2.3 0.4
v -0.3 2.4 -0.6
v -0.3 2.4 0.2
v -0.3 2.4 0.3
v -0.3 2.5 -0.6
v -0.3 2.5 0.2
v -0.2 2.5 -0.5
v -0.2 2.5 0.1
v -0.2 2.6 -0.5
v -0.2 2.6 0.1
v 0.1 0 -0.2
v 0.1 0 0.2
v 0.1 0.1 -0.2
v 0.1 0.1 -0.1
v 0.1 0.1 0.2
v 0.1 0.5 -0.1
v 0.1 0.5 0.2
v 0.1 0.7 -0.1
v 0.1 0.7 0.2
v -0.1 0 -0.2
v -0.1 0 0.2
v -0.1 0.1 -0.2
v -0.1 0.1 -0.1
v -0.1 0.1 0.2
v -0.1 0.5 -0.1
v -0.1 0.5 0.2
v -0.1 0.6 0.2
v -0.1 0.7 -0.1
v -0.1 0.7 0.2
v 0.2 2.5 -0.5
v 0.2 2.5 0.1
v 0.2 2.6 -0.5
v 0.2 2.6 0.1
v 0.3 0 -0.2
v 0.3 0 0.2
v 0.3 0.1 -0.2
v 0.3 0.1 -0.1
v 0.3 0.1 0.2
v 0.3 0.5 -0.2
v 0.3 0.5 -0.1
v 0.3 0.5 0.2
v 0.3 0.5 0.3
v 0.3 0.6 -0.2
v 0.3 0.6 -0.1
v 0.3 0.6 0.2
v 0.3 0.6 0.3
v 0.3 1.6 -0.2
v 0.3 1.6 -0.1
v 0.3 1.6 0.2
v 0.3 1.6 0.3
v 0.3 1.7 -0.2
v 0.3 1.7 -0.1
v 0.3 1.7 0
v 0.3 1.7 0.2
v 0.3 1.7 0.3
v 0.3 1.8 0
v 0.3 1.8 0.3
v 0.3 1.8 0.4
v 0.3 2.2 -0.6
v 0.3 2.2 -0.3
v 0.3 2.3 -0.6
v 0.3 2.3 -0.3
v 0.3 2.3 0.2
v 0.3 2.3 0.3
v 0.3 2.3 0.4
v 0.3 2.4 -0.6
v 0.3 2.4 0.2
v 0.3 2.4 0.3
v 0.3 2.5 -0.6
v 0.3 2.5 0.2
v 0.4 0.5 -0.1
v 0.4 0.5 0.2
v 0.4 0.6 -0.2
v 0.4 0.6 -0.1
v 0.4 0.6 0.2
v 0.4 0.6 0.3
v 0.4 0.8 0
v 0.4 0.8 0.1
v 0.4 0.9 -0.1
v 0.4 0.9 0
v 0.4 0.9 0.1
v 0.4 0.9 0.2
v 0.4 1 -0.1
v 0.4 1 0.2
v 0.4 1.5 -0.1
v 0.4 1.5 0.2
v 0.4 1.6 -0.2
v 0.4 1.6 -0.1
v 0.4 1.6 0.2
v 0.4 1.6 0.3
v 0.4 1.7 -0.3
v 0.4 1.7 -0.2
v 0.4 1.7 0
v 0.4 1.8 -0.2
v 0.4 1.8 -0.1
v 0.4 1.8 0
v 0.4 1.8 0.3
v 0.4 2 -0.3
v 0.4 2 -0.1
v 0.4 2.3 -0.6
v 0.4 2.3 -0.3
v 0.4 2.3 0.2
v 0.4 2.3 0.3
v 0.4 2.4 -0.6
v 0.4 2.4 0.2
v 0.5 1.5 -0.1
v 0.5 1.5 0.2
v 0.5 1.6 -0.1
v 0.5 1.6 0.2
v 0.6 0.8 0
v 0.6 0.8 0.1
v 0.6 0.9 -0.1
v 0.6 0.9 0
v 0.6 0.9 0.1
v 0.6 0.9 0.2
v 0.6 1 0
v 0.6 1 0.1
v 0.6 1.4 0
v 0.6 1.4 0.1
v 0.6 1.5 -0.1
v 0.6 1.5 0.2
v -0.4 2.3 -0.6
v -0.4 2.4 -0.6
v -0.3 2.2 -0.6
v -0.3 2.3 -0.6
v -0.3 2.4 -0.6
v -0.3 2.5 -0.6
v 0.3 2.2 -0.6
v 0.3 2.3 -0.6
v 0.3 2.4 -0.6
v 0.3 2.5 -0.6
v 0.4 2.3 -0.6
v 0.4 2.4 -0.6
v -0.2 2.5 -0.5
v -0.2 2.6 -0.5
v 0.2 2.5 -0.5
v 0.2 2.6 -0.5
v -0.4 1.7 -0.3
v -0.4 2 -0.3
v -0.4 2.3 -0.3
v -0.3 2 -0.3
v -0.3 2.2 -0.3
v -0.3 2.3 -0.3
v -0.2 1.9 -0.3
v -0.2 2 -0.3
v -0.2 2.1 -0.3
v -0.1 1.7 -0.3
v -0.1 1.8 -0.3
v -0.1 1.9 -0.3
v -0.1 2 -0.3
v -0.1 2.1 -0.3
v 0.1 1.7 -0.3
v 0.1 1.8 -0.3
v 0.1 1.9 -0.3
v 0.1 2 -0.3
v 0.1 2.1 -0.3
v 0.2 1.9 -0.3
v 0.2 2 -0.3
v 0.2 2.1 -0.3
v 0.3 2 -0.3
v 0.3 2.2 -0.3
v 0.3 2.3 -0.3
v 0.4 1.7 -0.3
v 0.4 2 -0.3
v 0.4 2.3 -0.3
v -0.4 0.6 -0.2
v -0.4 1.6 -0.2
v -0.3 0 -0.2
v -0.3 0.1 -0.2
v -0.3 0.5 -0.2
v -0.3 0.6 -0.2
v -0.3 0.7 -0.2
v -0.3 1.6 -0.2
v -0.3 1.7 -0.2
v -0.2 0.6 -0.2
v -0.2 0.7 -0.2
v -0.2 0.8 -0.2
v -0.2 1.6 -0.2
v -0.2 1.7 -0.2
v -0.1 0 -0.2
v -0.1 0.1 -0.2
v -0.1 0.7 -0.2
v -0.1 0.8 -0.2
v -0.1 0.9 -0.2
v -0.1 1 -0.2
v -0.1 1.2 -0.2
v -0.1 1.3 -0.2
v -0.1 1.4 -0.2
v -0.1 1.6 -0.2
v -0.1 1.7 -0.2
v 0 0.7 -0.2
v 0 0.8 -0.2
v 0 0.9 -0.2
v 0 1 -0.2
v 0 1.2 -0.2
v 0 1.3 -0.2
v 0 1.4 -0.2
v 0 1.5 -0.2
v 0.1 0 -0.2
v 0.1 0.1 -0.2
v 0.1 0.6 -0.2
v 0.1 0.7 -0.2
v 0.1 0.8 -0.2
v 0.1 1.4 -0.2
v 0.1 1.5 -0.2
v 0.1 1.6 -0.2
v 0.1 1.7 -0.2
v 0.2 1.4 -0.2
v 0.2 1.5 -0.2
v 0.2 1.6 -0.2
v 0.2 1.7 -0.2
v 0.3 0 -0.2
v 0.3 0.1 -0.2
v 0.3 0.5 -0.2
v 0.3 0.6 -0.2
v 0.3 0.7 -0.2
v 0.3 1.6 -0.2
v 0.3 1.7 -0.2
v 0.4 0.6 -0.2
v 0.4 1.6 -0.2
v -0.6 0.9 -0.1
v -0.6 1.5 -0.1
v -0.5 1 -0.1
v -0.5 1.5 -0.1
v -0.5 1.6 -0.1
v -0.4 0.5 -0.1
v -0.4 0.6 -0.1
v -0.4 0.9 -0.1
v -0.4 1 -0.1
v -0.4 1.5 -0.1
v -0.4 1.6 -0.1
v -0.3 0.1 -0.1
v -0.3 0.5 -0.1
v -0.3 0.6 -0.1
v -0.1 0.1 -0.1
v -0.1 0.5 -0.1
v 0.1 0.1 -0.1
v 0.1 0.5 -0.1
v 0.3 0.1 -0.1
v 0.3 0.5 -0.1
v 0.3 0.6 -0.1
v 0.4 0.5 -0.1
v 0.4 0.6 -0.1
v 0.4 0.9 -0.1
v 0.4 1 -0.1
v 0.4 1.5 -0.1
v 0.4 1.6 -0.1
v 0.5 1 -0.1
v 0.5 1.5 -0.1
v 0.5 1.6 -0.1
v 0.6 0.9 -0.1
v 0.6 1.5 -0.1
v -0.6 0.8 0
v -0.6 0.9 0
v -0.4 0.8 0
v -0.4 0.9 0
v 0.4 0.8 0
v 0.4 0.9 0
v 0.6 0.8 0
v 0.6 0.9 0
v -0.1 0.5 0.2
v -0.1 0.6 0.2
v -0.1 0.7 0.2
v 0 0.5 0.2
v 0 0.6 0.2
v 0.1 0.5 0.2
v 0.1 0.7 0.2
v -0.1 0.5 -0.1
v -0.1 0.7 -0.1
v 0.1 0.5 -0.1
v 0.1 0.7 -0.1
v -0.4 1.7 0
v -0.4 1.8 0
v -0.3 1.7 0
v -0.3 1.8 0
v 0.3 1.7 0
v 0.3 1.8 0
v 0.4 1.7 0
v 0.4 1.8 0
v -0.6 0.8 0.1
v -0.6 0.9 0.1
v -0.4 0.8 0.1
v -0.4 0.9 0.1
v -0.2 2.5 0.1
v -0.2 2.6 0.1
v 0.2 2.5 0.1
v 0.2 2.6 0.1
v 0.4 0.8 0.1
v 0.4 0.9 0.1
v 0.6 0.8 0.1
v 0.6 0.9 0.1
v -0.6 0.9 0.2
v -0.6 1.5 0.2
v -0.5 1 0.2
v -0.5 1.5 0.2
v -0.5 1.6 0.2
v -0.4 0.5 0.2
v -0.4 0.6 0.2
v -0.4 0.9 0.2
v -0.4 1 0.2
v -0.4 1.5 0.2
v -0.4 1.6 0.2
v -0.4 2.3 0.2
v -0.4 2.4 0.2
v -0.3 0 0.2
v -0.3 0.1 0.2
v -0.3 0.5 0.2
v -0.3 0.6 0.2
v -0.3 2.3 0.2
v -0.3 2.4 0.2
v -0.3 2.5 0.2
v -0.1 0 0.2
v -0.1 0.1 0.2
v -0.1 0.5 0.2
v 0.1 0 0.2
v 0.1 0.1 0.2
v 0.1 0.5 0.2
v 0.3 0 0.2
v 0.3 0.1 0.2
v 0.3 0.5 0.2
v 0.3 0.6 0.2
v 0.3 2.3 0.2
v 0.3 2.4 0.2
v 0.3 2.5 0.2
v 0.4 0.5 0.2
v 0.4 0.6 0.2
v 0.4 0.9 0.2
v 0.4 1 0.2
v 0.4 1.5 0.2
v 0.4 1.6 0.2
v 0.4 2.3 0.2
v 0.4 2.4 0.2
v 0.5 1 0.2
v 0.5 1.5 0.2
v 0.5 1.6 0.2
v 0.6 0.9 0.2
v 0.6 1.5 0.2
v -0.4 0.6 0.3
v -0.4 1.6 0.3
v -0.4 1.8 0.3
v -0.4 2.3 0.3
v -0.3 0.5 0.3
v -0.3 0.6 0.3
v -0.3 1.6 0.3
v -0.3 1.7 0.3
v -0.3 1.8 0.3
v -0.3 2.3 0.3
v -0.3 2.4 0.3
v -0.2 0.6 0.3
v -0.2 0.7 0.3
v -0.2 1.6 0.3
v -0.2 1.7 0.3
v -0.1 0.5 0.3
v -0.1 0.6 0.3
v -0.1 0.7 0.3
v -0.1 0.9 0.3
v 0 0.5 0.3
v 0 0.6 0.3
v 0 0.7 0.3
v 0 0.9 0.3
v 0.1 0.6 0.3
v 0.1 0.7 0.3
v 0.2 1.6 0.3
v 0.2 1.7 0.3
v 0.3 0.5 0.3
v 0.3 0.6 0.3
v 0.3 1.6 0.3
v 0.3 1.7 0.3
v 0.3 1.8 0.3
v 0.3 2.3 0.3
v 0.3 2.4 0.3
v 0.4 0.6 0.3
v 0.4 1.6 0.3
v 0.4 1.8 0.3
v 0.4 2.3 0.3
v -0.3 1.8 0.4
v -0.3 2.3 0.4
v 0.3 1.8 0.4
v 0.3 2.3 0.4
v -0.3 0 -0.2
v -0.1 0 -0.2
v 0.1 0 -0.2
v 0.3 0 -0.2
v -0.3 0 0.2
v -0.1 0 0.2
v 0.1 0 0.2
v 0.3 0 0.2
v -0.3 0.5 -0.2
v 0.3 0.5 -0.2
v -0.4 0.5 -0.1
v -0.3 0.5 -0.1
v -0.1 0.5 -0.1
v 0.1 0.5 -0.1
v 0.3 0.5 -0.1
v 0.4 0.5 -0.1
v -0.4 0.5 0.2
v -0.3 0.5 0.2
v -0.1 0.5 0.2
v 0 0.5 0.2
v 0.1 0.5 0.2
v 0.3 0.5 0.2
v 0.4 0.5 0.2
v -0.3 0.5 0.3
v -0.1 0.5 0.3
v 0 0.5 0.3
v 0.3 0.5 0.3
v -0.4 0.6 -0.2
v -0.3 0.6 -0.2
v 0.3 0.6 -0.2
v 0.4 0.6 -0.2
v -0.4 0.6 -0.1
v -0.3 0.6 -0.1
v 0.3 0.6 -0.1
v 0.4 0.6 -0.1
v -0.4 0.6 0.2
v -0.3 0.6 0.2
v 0.3 0.6 0.2
v 0.4 0.6 0.2
v -0.4 0.6 0.3
v -0.3 0.6 0.3
v 0.3 0.6 0.3
v 0.4 0.6 0.3
v -0.1 0.7 -0.1
v 0.1 0.7 -0.1
v -0.1 0.7 0.2
v 0.1 0.7 0.2
v -0.6 0.8 0
v -0.4 0.8 0
v 0.4 0.8 0
v 0.6 0.8 0
v -0.6 0.8 0.1
v -0.4 0.8 0.1
v 0.4 0.8 0.1
v 0.6 0.8 0.1
v -0.6 0.9 -0.1
v -0.4 0.9 -0.1
v 0.4 0.9 -0.1
v 0.6 0.9 -0.1
v -0.6 0.9 0
v -0.4 0.9 0
v 0.4 0.9 0
v 0.6 0.9 0
v -0.6 0.9 0.1
v -0.4 0.9 0.1
v 0.4 0.9 0.1
v 0.6 0.9 0.1
v -0.6 0.9 0.2
v -0.4 0.9 0.2
v 0.4 0.9 0.2
v 0.6 0.9 0.2
v -0.4 1.7 -0.3
v -0.1 1.7 -0.3
v 0.1 1.7 -0.3
v 0.4 1.7 -0.3
v -0.4 1.7 -0.2
v -0.3 1.7 -0.2
v -0.2 1.7 -0.2
v -0.1 1.7 -0.2
v 0.1 1.7 -0.2
v 0.2 1.7 -0.2
v 0.3 1.7 -0.2
v 0.4 1.7 -0.2
v -0.3 1.7 -0.1
v 0.3 1.7 -0.1
v -0.4 1.7 0
v -0.3 1.7 0
v 0.3 1.7 0
v 0.4 1.7 0
v -0.4 1.8 0
v -0.3 1.8 0
v 0.3 1.8 0
v 0.4 1.8 0
v -0.4 1.8 0.3
v -0.3 1.8 0.3
v 0.3 1.8 0.3
v 0.4 1.8 0.3
v -0.3 1.8 0.4
v 0.3 1.8 0.4
v -0.3 2.2 -0.6
v 0.3 2.2 -0.6
v -0.3 2.2 -0.3
v 0.3 2.2 -0.3
v -0.4 2.3 -0.6
v -0.3 2.3 -0.6
v 0.3 2.3 -0.6
v 0.4 2.3 -0.6
v -0.4 2.3 -0.3
v -0.3 2.3 -0.3
v 0.3 2.3 -0.3
v 0.4 2.3 -0.3
v -0.3 0.1 -0.2
v -0.1 0.1 -0.2
v 0.1 0.1 -0.2
v 0.3 0.1 -0.2
v -0.3 0.1 -0.1
v -0.1 0.1 -0.1
v 0.1 0.1 -0.1
v 0.3 0.1 -0.1
v -0.6 1.5 -0.1
v -0.5 1.5 -0.1
v 0.5 1.5 -0.1
v 0.6 1.5 -0.1
v -0.6 1.5 0.2
v -0.5 1.5 0.2
v 0.5 1.5 0.2
v 0.6 1.5 0.2
v -0.4 1.6 -0.2
v -0.3 1.6 -0.2
v 0.3 1.6 -0.2
v 0.4 1.6 -0.2
v -0.5 1.6 -0.1
v -0.4 1.6 -0.1
v -0.3 1.6 -0.1
v 0.3 1.6 -0.1
v 0.4 1.6 -0.1
v 0.5 1.6 -0.1
v -0.5 1.6 0.2
v -0.4 1.6 0.2
v -0.3 1.6 0.2
v 0.3 1.6 0.2
v 0.4 1.6 0.2
v 0.5 1.6 0.2
v -0.4 1.6 0.3
v -0.3 1.6 0.3
v 0.3 1.6 0.3
v 0.4 1.6 0.3
v -0.4 2.3 0.2
v -0.3 2.3 0.2
v 0.3 2.3 0.2
v 0.4 2.3 0.2
v -0.4 2.3 0.3
v -0.3 2.3 0.3
v 0.3 2.3 0.3
v 0.4 2.3 0.3
v -0.3 2.3 0.4
v 0.3 2.3 0.4
v -0.4 2.4 -0.6
v -0.3 2.4 -0.6
v 0.3 2.4 -0.6
v 0.4 2.4 -0.6
v -0.4 2.4 0.2
v -0.3 2.4 0.2
v 0.3 2.4 0.2
v 0.4 2.4 0.2
v -0.3 2.4 0.3
v 0.3 2.4 0.3
v -0.3 2.5 -0.6
v 0.3 2.5 -0.6
v -0.2 2.5 -0.5
v 0.2 2.5 -0.5
v -0.2 2.5 0.1
v 0.2 2.5 0.1
v -0.3 2.5 0.2
v 0.3 2.5 0.2
v -0.2 2.6 -0.5
v 0.2 2.6 -0.5
v -0.2 2.6 0.1
v 0.2 2.6 0.1

# faces
f 1/2/1 2/2/1 4/2/1
f 4/2/1 2/2/1 5/2/1
f 3/10/1 4/10/1 7/10/1
f 5/10/1 6/10/1 7/10/1
f 4/10/1 5/10/1 7/10/1
f 7/10/1 6/10/1 8/10/1
f 3/10/1 7/10/1 9/10/1
f 7/9/1 8/9/1 9/9/1
f 8/10/1 6/10/1 10/10/1
f 9/9/1 8/9/1 10/9/1
f 3/10/1 9/10/1 11/10/1
f 9/10/1 10/10/1 11/10/1
f 10/10/1 6/10/1 12/10/1
f 11/10/1 10/10/1 12/10/1
f 13/10/1 14/10/1 15/10/1
f 15/10/1 14/10/1 16/10/1
f 17/10/1 18/10/1 20/10/1
f 20/10/1 18/10/1 21/10/1
f 20/9/1 21/9/1 23/9/1
f 23/9/1 21/9/1 24/9/1
f 19/10/1 20/10/1 25/10/1
f 20/9/1 23/9/1 25/9/1
f 25/9/1 23/9/1 26/9/1
f 24/9/1 21/9/1 27/9/1
f 21/10/1 22/10/1 28/10/1
f 27/9/1 21/9/1 28/9/1
f 19/10/1 25/10/1 29/10/1
f 28/10/1 22/10/1 30/10/1
f 19/10/1 29/10/1 31/10/1
f 30/10/1 22/10/1 32/10/1
f 19/10/1 31/10/1 33/10/1
f 33/10/1 31/10/1 34/10/1
f 32/10/1 22/10/1 35/10/1
f 35/10/1 22/10/1 36/10/1
f 37/2/1 38/2/1 40/2/1
f 38/3/1 39/3/1 40/3/1
f 40/3/1 39/3/1 41/3/1
f 41/3/1 39/3/1 42/3/1
f 37/2/1 40/2/1 44/2/1
f 40/2/1 41/2/1 44/2/1
f 42/3/1 43/3/1 45/3/1
f 44/2/1 41/2/1 45/2/1
f 41/3/1 42/3/1 45/3/1
f 44/3/1 45/3/1 47/3/1
f 45/3/1 43/3/1 48/3/1
f 47/3/1 45/3/1 48/3/1
f 48/3/1 43/3/1 49/3/1
f 46/3/1 47/3/1 50/3/1
f 47/3/1 48/3/1 50/3/1
f 50/3/1 48/3/1 51/3/1
f 52/6/1 53/6/1 54/6/1
f 54/6/1 53/6/1 55/6/1
f 55/6/1 53/6/1 56/6/1
f 55/9/1 56/9/1 58/9/1
f 58/9/1 56/9/1 59/9/1
f 57/8/1 58/8/1 61/8/1
f 61/8/1 58/8/1 62/8/1
f 59/10/1 60/10/1 63/10/1
f 63/10/1 60/10/1 64/10/1
f 65/10/1 66/10/1 69/10/1
f 66/9/1 67/9/1 70/9/1
f 69/10/1 66/10/1 70/10/1
f 70/9/1 67/9/1 71/9/1
f 67/10/1 68/10/1 72/10/1
f 71/9/1 67/9/1 72/9/1
f 72/10/1 68/10/1 73/10/1
f 72/4/1 73/4/1 74/4/1
f 71/4/1 72/4/1 74/4/1
f 74/4/1 73/4/1 75/4/1
f 77/3/1 78/3/1 79/3/1
f 79/3/1 78/3/1 80/3/1
f 75/3/1 76/3/1 82/3/1
f 82/3/1 76/3/1 83/3/1
f 81/3/1 82/3/1 85/3/1
f 85/3/1 82/3/1 86/3/1
f 84/3/1 85/3/1 87/3/1
f 87/3/1 85/3/1 88/3/1
f 89/3/1 90/3/1 91/3/1
f 91/3/1 90/3/1 92/3/1
f 93/6/1 94/6/1 95/6/1
f 95/6/1 94/6/1 96/6/1
f 96/6/1 94/6/1 97/6/1
f 96/9/1 97/9/1 98/9/1
f 98/9/1 97/9/1 99/9/1
f 98/10/1 99/10/1 100/10/1
f 100/10/1 99/10/1 101/10/1
f 104/6/2 103/6/2 102/6/2
f 105/6/2 103/6/2 104/6/2
f 106/6/2 103/6/2 105/6/2
f 107/9/2 106/9/2 105/9/2
f 108/9/2 106/9/2 107/9/2
f 109/10/2 108/10/2 107/10/2
f 110/10/2 109/10/2 107/10/2
f 111/10/2 109/10/2 110/10/2
f 114/3/2 113/3/2 112/3/2
f 115/3/2 113/3/2 114/3/2
f 118/6/2 117/6/2 116/6/2
f 119/6/2 117/6/2 118/6/2
f 120/6/2 117/6/2 119/6/2
f 122/9/2 120/9/2 119/9/2
f 123/9/2 120/9/2 122/9/2
f 125/8/2 122/8/2 121/8/2
f 126/8/2 122/8/2 125/8/2
f 127/10/2 124/10/2 123/10/2
f 128/10/2 124/10/2 127/10/2
f 133/10/2 130/10/2 129/10/2
f 134/9/2 131/9/2 130/9/2
f 134/10/2 130/10/2 133/10/2
f 135/9/2 131/9/2 134/9/2
f 136/10/2 132/10/2 131/10/2
f 136/9/2 131/9/2 135/9/2
f 137/10/2 132/10/2 136/10/2
f 138/4/2 137/4/2 136/4/2
f 138/4/2 136/4/2 135/4/2
f 139/4/2 137/4/2 138/4/2
f 143/3/2 142/3/2 141/3/2
f 144/3/2 142/3/2 143/3/2
f 146/3/2 140/3/2 139/3/2
f 147/3/2 140/3/2 146/3/2
f 149/3/2 146/3/2 145/3/2
f 150/3/2 146/3/2 149/3/2
f 151/3/2 149/3/2 148/3/2
f 152/3/2 149/3/2 151/3/2
f 156/10/2 154/10/2 153/10/2
f 157/10/2 154/10/2 156/10/2
f 159/9/2 157/9/2 156/9/2
f 160/9/2 157/9/2 159/9/2
f 161/10/2 156/10/2 155/10/2
f 161/9/2 159/9/2 156/9/2
f 162/9/2 159/9/2 161/9/2
f 163/9/2 157/9/2 160/9/2
f 164/10/2 158/10/2 157/10/2
f 164/9/2 157/9/2 163/9/2
f 165/10/2 161/10/2 155/10/2
f 166/10/2 158/10/2 164/10/2
f 167/10/2 165/10/2 155/10/2
f 168/10/2 158/10/2 166/10/2
f 169/10/2 167/10/2 155/10/2
f 170/10/2 167/10/2 169/10/2
f 171/10/2 158/10/2 168/10/2
f 172/10/2 158/10/2 171/10/2
f 176/2/2 174/2/2 173/2/2
f 176/3/2 175/3/2 174/3/2
f 177/3/2 175/3/2 176/3/2
f 178/3/2 175/3/2 177/3/2
f 180/2/2 176/2/2 173/2/2
f 180/2/2 177/2/2 176/2/2
f 181/3/2 179/3/2 178/3/2
f 181/2/2 177/2/2 180/2/2
f 181/3/2 178/3/2 177/3/2
f 183/3/2 181/3/2 180/3/2
f 184/3/2 179/3/2 181/3/2
f 184/3/2 181/3/2 183/3/2
f 185/3/2 179/3/2 184/3/2
f 186/3/2 183/3/2 182/3/2
f 186/3/2 184/3/2 183/3/2
f 187/3/2 184/3/2 186/3/2
f 190/10/2 189/10/2 188/10/2
f 191/10/2 189/10/2 190/10/2
f 195/2/2 193/2/2 192/2/2
f 196/2/2 193/2/2 195/2/2
f 198/10/2 195/10/2 194/10/2
f 198/10/2 197/10/2 196/10/2
f 198/10/2 196/10/2 195/10/2
f 199/10/2 197/10/2 198/10/2
f 200/10/2 198/10/2 194/10/2
f 200/9/2 199/9/2 198/9/2
f 201/10/2 197/10/2 199/10/2
f 201/9/2 199/9/2 200/9/2
f 202/10/2 200/10/2 194/10/2
f 202/10/2 201/10/2 200/10/2
f 203/10/2 197/10/2 201/10/2
f 203/10/2 201/10/2 202/10/2
f 204/3/3 205/3/3 207/3/3
f 207/3/3 205/3/3 208/3/3
f 206/3/3 207/3/3 210/3/3
f 208/3/3 209/3/3 210/3/3
f 207/3/3 208/3/3 210/3/3
f 210/3/3 209/3/3 211/3/3
f 211/3/3 209/3/3 212/3/3
f 212/3/3 209/3/3 213/3/3
f 211/3/3 212/3/3 214/3/3
f 214/3/3 212/3/3 215/3/3
f 216/3/3 217/3/3 218/3/3
f 218/3/3 217/3/3 219/3/3
f 220/2/3 221/2/3 223/2/3
f 221/3/3 222/3/3 223/3/3
f 223/3/3 222/3/3 224/3/3
f 224/3/3 222/3/3 225/3/3
f 220/2/3 223/2/3 226/2/3
f 223/2/3 224/2/3 226/2/3
f 226/2/3 224/2/3 227/2/3
f 227/2/3 224/2/3 228/2/3
f 220/2/3 226/2/3 229/2/3
f 229/2/3 226/2/3 230/2/3
f 226/11/3 227/11/3 231/11/3
f 230/2/3 226/2/3 231/2/3
f 227/5/3 228/5/3 232/5/3
f 231/11/3 227/11/3 232/11/3
f 228/2/3 224/2/3 233/2/3
f 232/5/3 228/5/3 233/5/3
f 229/7/3 230/7/3 234/7/3
f 231/2/3 232/2/3 235/2/3
f 234/7/3 230/7/3 235/7/3
f 230/2/3 231/2/3 235/2/3
f 232/2/3 233/2/3 235/2/3
f 235/2/3 233/2/3 236/2/3
f 236/2/3 233/2/3 237/2/3
f 233/2/3 224/2/3 238/2/3
f 237/2/3 233/2/3 238/2/3
f 236/11/3 237/11/3 239/11/3
f 234/2/3 235/2/3 239/2/3
f 235/2/3 236/2/3 239/2/3
f 237/5/3 238/5/3 240/5/3
f 239/11/3 237/11/3 240/11/3
f 238/2/3 224/2/3 241/2/3
f 240/5/3 238/5/3 241/5/3
f 239/2/3 240/2/3 242/2/3
f 240/2/3 241/2/3 242/2/3
f 241/2/3 224/2/3 243/2/3
f 242/2/3 241/2/3 243/2/3
f 239/2/3 242/2/3 245/2/3
f 234/2/3 239/2/3 245/2/3
f 243/3/3 244/3/3 246/3/3
f 245/2/3 242/2/3 246/2/3
f 242/3/3 243/3/3 246/3/3
f 246/3/3 244/3/3 247/3/3
f 248/10/3 249/10/3 253/10/3
f 253/10/3 249/10/3 254/10/3
f 254/10/3 249/10/3 255/10/3
f 252/8/3 253/8/3 257/8/3
f 253/10/3 254/10/3 257/10/3
f 254/9/3 255/9/3 258/9/3
f 257/10/3 254/10/3 258/10/3
f 258/9/3 255/9/3 259/9/3
f 255/10/3 256/10/3 260/10/3
f 259/9/3 255/9/3 260/9/3
f 260/10/3 256/10/3 261/10/3
f 250/6/3 251/6/3 262/6/3
f 262/6/3 251/6/3 263/6/3
f 258/10/3 259/10/3 264/10/3
f 257/8/3 258/8/3 264/8/3
f 259/9/3 260/9/3 265/9/3
f 264/10/3 259/10/3 265/10/3
f 265/9/3 260/9/3 266/9/3
f 266/9/3 260/9/3 267/9/3
f 267/9/3 260/9/3 268/9/3
f 268/9/3 260/9/3 269/9/3
f 269/9/3 260/9/3 270/9/3
f 260/8/3 261/8/3 271/8/3
f 270/9/3 260/9/3 271/9/3
f 271/8/3 261/8/3 272/8/3
f 257/8/3 264/8/3 273/8/3
f 264/8/3 265/8/3 273/8/3
f 265/10/3 266/10/3 274/10/3
f 273/8/3 265/8/3 274/8/3
f 266/1/3 267/1/3 275/1/3
f 274/10/3 266/10/3 275/10/3
f 267/10/3 268/10/3 276/10/3
f 275/1/3 267/1/3 276/1/3
f 268/1/3 269/1/3 277/1/3
f 276/10/3 268/10/3 277/10/3
f 269/10/3 270/10/3 278/10/3
f 277/1/3 269/1/3 278/1/3
f 271/8/3 272/8/3 279/8/3
f 278/10/3 270/10/3 279/10/3
f 270/8/3 271/8/3 279/8/3
f 279/8/3 272/8/3 280/8/3
f 252/8/3 257/8/3 283/8/3
f 257/8/3 273/8/3 283/8/3
f 273/10/3 274/10/3 284/10/3
f 283/8/3 273/8/3 284/8/3
f 277/9/3 278/9/3 285/9/3
f 284/10/3 274/10/3 285/10/3
f 276/9/3 277/9/3 285/9/3
f 279/9/3 280/9/3 285/9/3
f 278/9/3 279/9/3 285/9/3
f 274/9/3 275/9/3 285/9/3
f 275/9/3 276/9/3 285/9/3
f 285/9/3 280/9/3 286/9/3
f 280/8/3 272/8/3 287/8/3
f 286/9/3 280/9/3 287/9/3
f 287/8/3 272/8/3 288/8/3
f 288/8/3 272/8/3 289/8/3
f 285/9/3 286/9/3 290/9/3
f 284/9/3 285/9/3 290/9/3
f 286/1/3 287/1/3 290/1/3
f 287/9/3 288/9/3 291/9/3
f 290/1/3 287/1/3 291/1/3
f 288/8/3 289/8/3 292/8/3
f 291/9/3 288/9/3 292/9/3
f 292/8/3 289/8/3 293/8/3
f 281/6/3 282/6/3 294/6/3
f 294/6/3 282/6/3 295/6/3
f 252/8/3 283/8/3 296/8/3
f 283/10/3 284/10/3 297/10/3
f 296/8/3 283/8/3 297/8/3
f 290/9/3 291/9/3 298/9/3
f 297/10/3 284/10/3 298/10/3
f 284/9/3 290/9/3 298/9/3
f 291/9/3 292/9/3 298/9/3
f 292/10/3 293/10/3 299/10/3
f 298/9/3 292/9/3 299/9/3
f 299/10/3 293/10/3 300/10/3
f 298/10/3 299/10/3 301/10/3
f 297/10/3 298/10/3 301/10/3
f 301/10/3 299/10/3 302/10/3
f 303/10/3 304/10/3 305/10/3
f 305/10/3 304/10/3 306/10/3
f 303/10/3 305/10/3 310/10/3
f 305/9/3 306/9/3 311/9/3
f 310/10/3 305/10/3 311/10/3
f 306/10/3 307/10/3 312/10/3
f 311/9/3 306/9/3 312/9/3
f 312/10/3 307/10/3 313/10/3
f 308/10/3 309/10/3 315/10/3
f 315/10/3 309/10/3 316/10/3
f 314/9/3 315/9/3 317/9/3
f 317/9/3 315/9/3 318/9/3
f 319/9/3 320/9/3 321/9/3
f 321/9/3 320/9/3 322/9/3
f 322/10/3 323/10/3 324/10/3
f 324/10/3 323/10/3 325/10/3
f 326/10/3 327/10/3 330/10/3
f 327/9/3 328/9/3 330/9/3
f 328/10/3 329/10/3 331/10/3
f 330/9/3 328/9/3 331/9/3
f 331/10/3 329/10/3 332/10/3
f 326/10/3 330/10/3 333/10/3
f 330/10/3 331/10/3 333/10/3
f 333/10/3 331/10/3 334/10/3
f 335/2/3 336/2/3 337/2/3
f 337/2/3 336/2/3 338/2/3
f 339/2/3 340/2/3 341/2/3
f 341/2/3 340/2/3 342/2/3
f 343/8/3 344/8/3 346/8/3
f 344/10/3 345/10/3 347/10/3
f 346/8/3 344/8/3 347/8/3
f 346/10/3 347/10/3 348/10/3
f 347/10/3 345/10/3 349/10/3
f 348/10/3 347/10/3 349/10/3
f 352/8/4 351/8/4 350/8/4
f 353/8/4 351/8/4 352/8/4
f 356/3/4 355/3/4 354/3/4
f 357/3/4 355/3/4 356/3/4
f 360/3/4 359/3/4 358/3/4
f 361/3/4 359/3/4 360/3/4
f 364/2/4 363/2/4 362/2/4
f 365/2/4 363/2/4 364/2/4
f 368/3/4 367/3/4 366/3/4
f 369/3/4 367/3/4 368/3/4
f 372/2/4 371/2/4 370/2/4
f 373/2/4 371/2/4 372/2/4
f 376/10/4 375/10/4 374/10/4
f 377/10/4 375/10/4 376/10/4
f 381/10/4 376/10/4 374/10/4
f 382/9/4 377/9/4 376/9/4
f 382/10/4 376/10/4 381/10/4
f 383/10/4 378/10/4 377/10/4
f 383/9/4 377/9/4 382/9/4
f 384/10/4 378/10/4 383/10/4
f 389/10/4 380/10/4 379/10/4
f 390/10/4 380/10/4 389/10/4
f 391/3/4 386/3/4 385/3/4
f 392/3/4 386/3/4 391/3/4
f 394/6/4 388/6/4 387/6/4
f 395/9/4 389/9/4 388/9/4
f 395/6/4 388/6/4 394/6/4
f 396/9/4 389/9/4 395/9/4
f 400/6/4 398/6/4 397/6/4
f 401/9/4 399/9/4 398/9/4
f 401/6/4 398/6/4 400/6/4
f 402/9/4 399/9/4 401/9/4
f 405/3/4 393/3/4 392/3/4
f 406/3/4 393/3/4 405/3/4
f 407/10/4 403/10/4 402/10/4
f 408/10/4 403/10/4 407/10/4
f 413/3/4 405/3/4 404/3/4
f 414/3/4 405/3/4 413/3/4
f 415/10/4 410/10/4 409/10/4
f 415/9/4 411/9/4 410/9/4
f 416/10/4 412/10/4 411/10/4
f 416/9/4 411/9/4 415/9/4
f 417/10/4 412/10/4 416/10/4
f 418/10/4 415/10/4 409/10/4
f 418/10/4 416/10/4 415/10/4
f 419/10/4 416/10/4 418/10/4
f 425/10/4 421/10/4 420/10/4
f 426/10/4 421/10/4 425/10/4
f 428/3/4 423/3/4 422/3/4
f 429/3/4 423/3/4 428/3/4
f 431/10/4 425/10/4 424/10/4
f 431/9/4 426/9/4 425/9/4
f 432/9/4 426/9/4 431/9/4
f 433/10/4 427/10/4 426/10/4
f 433/9/4 426/9/4 432/9/4
f 434/4/4 428/4/4 427/4/4
f 434/10/4 427/10/4 433/10/4
f 435/10/4 432/10/4 431/10/4
f 435/10/4 431/10/4 424/10/4
f 436/10/4 432/10/4 435/10/4
f 437/9/4 433/9/4 432/9/4
f 437/10/4 432/10/4 436/10/4
f 437/9/4 434/9/4 433/9/4
f 438/9/4 434/9/4 437/9/4
f 439/8/4 436/8/4 435/8/4
f 440/10/4 437/10/4 436/10/4
f 440/8/4 436/8/4 439/8/4
f 440/10/4 438/10/4 437/10/4
f 441/10/4 438/10/4 440/10/4
f 442/9/4 434/9/4 438/9/4
f 442/10/4 438/10/4 441/10/4
f 443/10/4 441/10/4 440/10/4
f 443/10/4 440/10/4 439/10/4
f 444/9/4 442/9/4 441/9/4
f 444/10/4 441/10/4 443/10/4
f 445/9/4 434/9/4 442/9/4
f 445/9/4 442/9/4 444/9/4
f 445/9/4 444/9/4 443/9/4
f 446/4/4 428/4/4 434/4/4
f 446/9/4 434/9/4 445/9/4
f 447/10/4 443/10/4 439/10/4
f 448/9/4 445/9/4 443/9/4
f 448/10/4 443/10/4 447/10/4
f 449/10/4 446/10/4 445/10/4
f 449/9/4 445/9/4 448/9/4
f 450/4/4 428/4/4 446/4/4
f 450/10/4 446/10/4 449/10/4
f 451/4/4 428/4/4 450/4/4
f 452/3/4 430/3/4 429/3/4
f 453/3/4 430/3/4 452/3/4
f 454/10/4 449/10/4 448/10/4
f 455/10/4 449/10/4 454/10/4
f 456/3/4 452/3/4 451/3/4
f 457/3/4 452/3/4 456/3/4
f 460/3/4 459/3/4 458/3/4
f 461/3/4 459/3/4 460/3/4
f 462/6/5 463/6/5 466/6/5
f 466/6/5 463/6/5 467/6/5
f 464/6/5 465/6/5 468/6/5
f 468/6/5 465/6/5 469/6/5
f 470/8/5 471/8/5 473/8/5
f 473/8/5 471/8/5 474/8/5
f 474/8/5 471/8/5 475/8/5
f 475/8/5 471/8/5 476/8/5
f 472/10/5 473/10/5 478/10/5
f 478/10/5 473/10/5 479/10/5
f 476/10/5 477/10/5 483/10/5
f 483/10/5 477/10/5 484/10/5
f 479/10/5 480/10/5 485/10/5
f 480/8/5 481/8/5 486/8/5
f 485/10/5 480/10/5 486/10/5
f 481/10/5 482/10/5 487/10/5
f 486/8/5 481/8/5 487/8/5
f 482/10/5 483/10/5 487/10/5
f 487/10/5 483/10/5 488/10/5
f 489/10/5 490/10/5 493/10/5
f 493/10/5 490/10/5 494/10/5
f 491/10/5 492/10/5 495/10/5
f 495/10/5 492/10/5 496/10/5
f 497/10/5 498/10/5 501/10/5
f 501/10/5 498/10/5 502/10/5
f 499/10/5 500/10/5 503/10/5
f 503/10/5 500/10/5 504/10/5
f 505/9/5 506/9/5 507/9/5
f 507/9/5 506/9/5 508/9/5
f 509/2/5 510/2/5 513/2/5
f 513/2/5 510/2/5 514/2/5
f 511/2/5 512/2/5 515/2/5
f 515/2/5 512/2/5 516/2/5
f 517/10/5 518/10/5 521/10/5
f 521/10/5 518/10/5 522/10/5
f 519/10/5 520/10/5 523/10/5
f 523/10/5 520/10/5 524/10/5
f 525/10/5 526/10/5 529/10/5
f 529/10/5 526/10/5 530/10/5
f 527/10/5 528/10/5 531/10/5
f 531/10/5 528/10/5 532/10/5
f 533/2/5 534/2/5 537/2/5
f 537/2/5 534/2/5 538/2/5
f 538/2/5 534/2/5 539/2/5
f 534/7/5 535/7/5 540/7/5
f 539/2/5 534/2/5 540/2/5
f 535/2/5 536/2/5 541/2/5
f 540/7/5 535/7/5 541/7/5
f 541/2/5 536/2/5 542/2/5
f 542/2/5 536/2/5 543/2/5
f 543/2/5 536/2/5 544/2/5
f 537/3/5 538/3/5 545/3/5
f 543/3/5 544/3/5 546/3/5
f 537/3/5 545/3/5 547/3/5
f 547/3/5 545/3/5 548/3/5
f 546/3/5 544/3/5 549/3/5
f 549/3/5 544/3/5 550/3/5
f 551/3/5 552/3/5 555/3/5
f 555/3/5 552/3/5 556/3/5
f 553/3/5 554/3/5 557/3/5
f 557/3/5 554/3/5 558/3/5
f 556/3/5 557/3/5 559/3/5
f 559/3/5 557/3/5 560/3/5
f 561/3/5 562/3/5 563/3/5
f 563/3/5 562/3/5 564/3/5
f 565/3/5 566/3/5 569/3/5
f 569/3/5 566/3/5 570/3/5
f 567/3/5 568/3/5 571/3/5
f 571/3/5 568/3/5 572/3/5
f 577/6/6 574/6/6 573/6/6
f 578/6/6 574/6/6 577/6/6
f 579/6/6 576/6/6 575/6/6
f 580/6/6 576/6/6 579/6/6
f 585/10/6 582/10/6 581/10/6
f 586/10/6 582/10/6 585/10/6
f 587/10/6 584/10/6 583/10/6
f 588/10/6 584/10/6 587/10/6
f 594/10/6 590/10/6 589/10/6
f 595/10/6 590/10/6 594/10/6
f 596/10/6 592/10/6 591/10/6
f 597/10/6 592/10/6 596/10/6
f 599/10/6 595/10/6 594/10/6
f 599/10/6 594/10/6 593/10/6
f 600/10/6 595/10/6 599/10/6
f 601/10/6 595/10/6 600/10/6
f 602/10/6 598/10/6 597/10/6
f 602/10/6 597/10/6 596/10/6
f 603/10/6 598/10/6 602/10/6
f 604/10/6 598/10/6 603/10/6
f 605/10/6 601/10/6 600/10/6
f 606/10/6 601/10/6 605/10/6
f 607/10/6 603/10/6 602/10/6
f 608/10/6 603/10/6 607/10/6
f 613/3/6 610/3/6 609/3/6
f 614/3/6 610/3/6 613/3/6
f 615/3/6 612/3/6 611/3/6
f 616/3/6 612/3/6 615/3/6
f 617/3/6 615/3/6 614/3/6
f 618/3/6 615/3/6 617/3/6
f 623/3/6 620/3/6 619/3/6
f 624/3/6 620/3/6 623/3/6
f 625/3/6 622/3/6 621/3/6
f 626/3/6 622/3/6 625/3/6
f 627/3/6 625/3/6 624/3/6
f 628/3/6 625/3/6 627/3/6
f 631/3/6 630/3/6 629/3/6
f 632/3/6 630/3/6 631/3/6
f 633/3/6 631/3/6 629/3/6
f 634/3/6 630/3/6 632/3/6
f 635/3/6 633/3/6 629/3/6
f 635/3/6 634/3/6 633/3/6
f 636/3/6 630/3/6 634/3/6
f 636/3/6 634/3/6 635/3/6
f 639/3/6 638/3/6 637/3/6
f 640/3/6 638/3/6 639/3/6
