# MagicaVoxel @ Ephtracy

# group
o 

# material
mtllib Badboy_Enemy.mtl
usemtl palette

# normals
vn -1 0 0
vn 1 0 0
vn 0 0 1
vn 0 0 -1
vn 0 -1 0
vn 0 1 0

# texcoords
vt 0.0214844 0.5
vt 0.0332031 0.5
vt 0.0917969 0.5
vt 0.228516 0.5
vt 0.232422 0.5
vt 0.537109 0.5
vt 0.849609 0.5
vt 0.962891 0.5
vt 0.982422 0.5
vt 0.986328 0.5
vt 0.990234 0.5

# verts
v -0.6 0.8 0
v -0.6 0.8 -0.1
v -0.6 0.9 0.1
v -0.6 0.9 0
v -0.6 0.9 -0.1
v -0.6 0.9 -0.2
v -0.6 1 0
v -0.6 1 -0.1
v -0.6 1.4 0
v -0.6 1.4 -0.1
v -0.6 1.5 0.1
v -0.6 1.5 -0.2
v -0.5 1.5 0.1
v -0.5 1.5 -0.2
v -0.5 1.6 0.1
v -0.5 1.6 -0.2
v -0.4 0.5 0.1
v -0.4 0.5 -0.2
v -0.4 0.6 0.2
v -0.4 0.6 0.1
v -0.4 0.6 -0.2
v -0.4 0.6 -0.3
v -0.4 0.8 0
v -0.4 0.8 -0.1
v -0.4 0.9 0.1
v -0.4 0.9 0
v -0.4 0.9 -0.1
v -0.4 0.9 -0.2
v -0.4 1 0.1
v -0.4 1 -0.2
v -0.4 1.5 0.1
v -0.4 1.5 -0.2
v -0.4 1.6 0.2
v -0.4 1.6 0.1
v -0.4 1.6 -0.2
v -0.4 1.6 -0.3
v -0.4 1.7 0.3
v -0.4 1.7 0.2
v -0.4 1.7 0
v -0.4 1.8 0.2
v -0.4 1.8 0.1
v -0.4 1.8 0
v -0.4 1.8 -0.3
v -0.4 2 0.3
v -0.4 2 0.1
v -0.4 2.3 0.6
v -0.4 2.3 0.3
v -0.4 2.3 -0.2
v -0.4 2.3 -0.3
v -0.4 2.4 0.6
v -0.4 2.4 -0.2
v -0.3 0 0.2
v -0.3 0 -0.2
v -0.3 0.1 0.2
v -0.3 0.1 0.1
v -0.3 0.1 -0.2
v -0.3 0.5 0.2
v -0.3 0.5 0.1
v -0.3 0.5 -0.2
v -0.3 0.5 -0.3
v -0.3 0.6 0.2
v -0.3 0.6 0.1
v -0.3 0.6 -0.2
v -0.3 0.6 -0.3
v -0.3 1.6 0.2
v -0.3 1.6 0.1
v -0.3 1.6 -0.2
v -0.3 1.6 -0.3
v -0.3 1.7 0.2
v -0.3 1.7 0.1
v -0.3 1.7 0
v -0.3 1.7 -0.2
v -0.3 1.7 -0.3
v -0.3 1.8 0
v -0.3 1.8 -0.3
v -0.3 1.8 -0.4
v -0.3 2.2 0.6
v -0.3 2.2 0.3
v -0.3 2.3 0.6
v -0.3 2.3 0.3
v -0.3 2.3 -0.2
v -0.3 2.3 -0.3
v -0.3 2.3 -0.4
v -0.3 2.4 0.6
v -0.3 2.4 -0.2
v -0.3 2.4 -0.3
v -0.3 2.5 0.6
v -0.3 2.5 -0.2
v -0.2 2.5 0.5
v -0.2 2.5 -0.1
v -0.2 2.6 0.5
v -0.2 2.6 -0.1
v 0.1 0 0.2
v 0.1 0 -0.2
v 0.1 0.1 0.2
v 0.1 0.1 0.1
v 0.1 0.1 -0.2
v 0.1 0.5 0.1
v 0.1 0.5 -0.2
v 0.1 0.7 0.1
v 0.1 0.7 -0.2
v -0.1 0 0.2
v -0.1 0 -0.2
v -0.1 0.1 0.2
v -0.1 0.1 0.1
v -0.1 0.1 -0.2
v -0.1 0.5 0.1
v -0.1 0.5 0
v -0.1 0.5 -0.2
v -0.1 0.6 -0.2
v -0.1 0.7 0.1
v -0.1 0.7 0
v -0.1 0.7 -0.2
v 0.2 2.5 0.5
v 0.2 2.5 -0.1
v 0.2 2.6 0.5
v 0.2 2.6 -0.1
v 0.3 0 0.2
v 0.3 0 -0.2
v 0.3 0.1 0.2
v 0.3 0.1 0.1
v 0.3 0.1 -0.2
v 0.3 0.5 0.2
v 0.3 0.5 0.1
v 0.3 0.5 -0.2
v 0.3 0.5 -0.3
v 0.3 0.6 0.2
v 0.3 0.6 0.1
v 0.3 0.6 -0.2
v 0.3 0.6 -0.3
v 0.3 1.6 0.2
v 0.3 1.6 0.1
v 0.3 1.6 -0.2
v 0.3 1.6 -0.3
v 0.3 1.7 0.2
v 0.3 1.7 0.1
v 0.3 1.7 0
v 0.3 1.7 -0.2
v 0.3 1.7 -0.3
v 0.3 1.8 0
v 0.3 1.8 -0.3
v 0.3 1.8 -0.4
v 0.3 2.2 0.6
v 0.3 2.2 0.3
v 0.3 2.3 0.6
v 0.3 2.3 0.3
v 0.3 2.3 -0.2
v 0.3 2.3 -0.3
v 0.3 2.3 -0.4
v 0.3 2.4 0.6
v 0.3 2.4 -0.2
v 0.3 2.4 -0.3
v 0.3 2.5 0.6
v 0.3 2.5 -0.2
v 0.4 0.5 0.1
v 0.4 0.5 -0.2
v 0.4 0.6 0.2
v 0.4 0.6 0.1
v 0.4 0.6 -0.2
v 0.4 0.6 -0.3
v 0.4 0.8 0
v 0.4 0.8 -0.1
v 0.4 0.9 0.1
v 0.4 0.9 0
v 0.4 0.9 -0.1
v 0.4 0.9 -0.2
v 0.4 1 0.1
v 0.4 1 -0.2
v 0.4 1.5 0.1
v 0.4 1.5 -0.2
v 0.4 1.6 0.2
v 0.4 1.6 0.1
v 0.4 1.6 -0.2
v 0.4 1.6 -0.3
v 0.4 1.7 0.3
v 0.4 1.7 0.2
v 0.4 1.7 0
v 0.4 1.8 0.2
v 0.4 1.8 0.1
v 0.4 1.8 0
v 0.4 1.8 -0.3
v 0.4 2 0.3
v 0.4 2 0.1
v 0.4 2.3 0.6
v 0.4 2.3 0.3
v 0.4 2.3 -0.2
v 0.4 2.3 -0.3
v 0.4 2.4 0.6
v 0.4 2.4 -0.2
v 0.5 1.5 0.1
v 0.5 1.5 -0.2
v 0.5 1.6 0.1
v 0.5 1.6 -0.2
v 0.6 0.8 0
v 0.6 0.8 -0.1
v 0.6 0.9 0.1
v 0.6 0.9 0
v 0.6 0.9 -0.1
v 0.6 0.9 -0.2
v 0.6 1 0
v 0.6 1 -0.1
v 0.6 1.4 0
v 0.6 1.4 -0.1
v 0.6 1.5 0.1
v 0.6 1.5 -0.2
v -0.4 2.3 0.6
v -0.4 2.4 0.6
v -0.3 2.2 0.6
v -0.3 2.3 0.6
v -0.3 2.4 0.6
v -0.3 2.5 0.6
v 0.3 2.2 0.6
v 0.3 2.3 0.6
v 0.3 2.4 0.6
v 0.3 2.5 0.6
v 0.4 2.3 0.6
v 0.4 2.4 0.6
v -0.2 2.5 0.5
v -0.2 2.6 0.5
v 0.2 2.5 0.5
v 0.2 2.6 0.5
v -0.4 1.7 0.3
v -0.4 2 0.3
v -0.4 2.3 0.3
v -0.3 2 0.3
v -0.3 2.2 0.3
v -0.3 2.3 0.3
v -0.2 1.9 0.3
v -0.2 2 0.3
v -0.2 2.1 0.3
v -0.1 1.7 0.3
v -0.1 1.8 0.3
v -0.1 1.9 0.3
v -0.1 2 0.3
v -0.1 2.1 0.3
v 0.1 1.7 0.3
v 0.1 1.8 0.3
v 0.1 1.9 0.3
v 0.1 2 0.3
v 0.1 2.1 0.3
v 0.2 1.9 0.3
v 0.2 2 0.3
v 0.2 2.1 0.3
v 0.3 2 0.3
v 0.3 2.2 0.3
v 0.3 2.3 0.3
v 0.4 1.7 0.3
v 0.4 2 0.3
v 0.4 2.3 0.3
v -0.4 0.6 0.2
v -0.4 1.6 0.2
v -0.3 0 0.2
v -0.3 0.1 0.2
v -0.3 0.5 0.2
v -0.3 0.6 0.2
v -0.3 0.7 0.2
v -0.3 1.6 0.2
v -0.3 1.7 0.2
v -0.2 0.6 0.2
v -0.2 0.7 0.2
v -0.2 0.8 0.2
v -0.2 1.6 0.2
v -0.2 1.7 0.2
v -0.1 0 0.2
v -0.1 0.1 0.2
v -0.1 0.7 0.2
v -0.1 0.8 0.2
v -0.1 0.9 0.2
v -0.1 1 0.2
v -0.1 1.2 0.2
v -0.1 1.3 0.2
v -0.1 1.4 0.2
v -0.1 1.6 0.2
v -0.1 1.7 0.2
v 0 0.7 0.2
v 0 0.8 0.2
v 0 0.9 0.2
v 0 1 0.2
v 0 1.2 0.2
v 0 1.3 0.2
v 0 1.4 0.2
v 0 1.5 0.2
v 0.1 0 0.2
v 0.1 0.1 0.2
v 0.1 0.6 0.2
v 0.1 0.7 0.2
v 0.1 0.8 0.2
v 0.1 1.4 0.2
v 0.1 1.5 0.2
v 0.1 1.6 0.2
v 0.1 1.7 0.2
v 0.2 1.4 0.2
v 0.2 1.5 0.2
v 0.2 1.6 0.2
v 0.2 1.7 0.2
v 0.3 0 0.2
v 0.3 0.1 0.2
v 0.3 0.5 0.2
v 0.3 0.6 0.2
v 0.3 0.7 0.2
v 0.3 1.6 0.2
v 0.3 1.7 0.2
v 0.4 0.6 0.2
v 0.4 1.6 0.2
v -0.6 0.9 0.1
v -0.6 1.5 0.1
v -0.5 1 0.1
v -0.5 1.5 0.1
v -0.5 1.6 0.1
v -0.4 0.5 0.1
v -0.4 0.6 0.1
v -0.4 0.9 0.1
v -0.4 1 0.1
v -0.4 1.5 0.1
v -0.4 1.6 0.1
v -0.3 0.1 0.1
v -0.3 0.5 0.1
v -0.3 0.6 0.1
v -0.1 0.1 0.1
v -0.1 0.5 0.1
v 0.1 0.1 0.1
v 0.1 0.5 0.1
v 0.3 0.1 0.1
v 0.3 0.5 0.1
v 0.3 0.6 0.1
v 0.4 0.5 0.1
v 0.4 0.6 0.1
v 0.4 0.9 0.1
v 0.4 1 0.1
v 0.4 1.5 0.1
v 0.4 1.6 0.1
v 0.5 1 0.1
v 0.5 1.5 0.1
v 0.5 1.6 0.1
v 0.6 0.9 0.1
v 0.6 1.5 0.1
v -0.6 0.8 0
v -0.6 0.9 0
v -0.4 0.8 0
v -0.4 0.9 0
v 0.4 0.8 0
v 0.4 0.9 0
v 0.6 0.8 0
v 0.6 0.9 0
v -0.1 0.5 -0.2
v -0.1 0.6 -0.2
v -0.1 0.7 -0.2
v 0 0.5 -0.2
v 0 0.6 -0.2
v 0.1 0.5 -0.2
v 0.1 0.7 -0.2
v -0.1 0.5 0.1
v -0.1 0.7 0.1
v 0.1 0.5 0.1
v 0.1 0.7 0.1
v -0.4 1.7 0
v -0.4 1.8 0
v -0.3 1.7 0
v -0.3 1.8 0
v 0.3 1.7 0
v 0.3 1.8 0
v 0.4 1.7 0
v 0.4 1.8 0
v -0.6 0.8 -0.1
v -0.6 0.9 -0.1
v -0.4 0.8 -0.1
v -0.4 0.9 -0.1
v -0.2 2.5 -0.1
v -0.2 2.6 -0.1
v 0.2 2.5 -0.1
v 0.2 2.6 -0.1
v 0.4 0.8 -0.1
v 0.4 0.9 -0.1
v 0.6 0.8 -0.1
v 0.6 0.9 -0.1
v -0.6 0.9 -0.2
v -0.6 1.5 -0.2
v -0.5 1 -0.2
v -0.5 1.5 -0.2
v -0.5 1.6 -0.2
v -0.4 0.5 -0.2
v -0.4 0.6 -0.2
v -0.4 0.9 -0.2
v -0.4 1 -0.2
v -0.4 1.5 -0.2
v -0.4 1.6 -0.2
v -0.4 2.3 -0.2
v -0.4 2.4 -0.2
v -0.3 0 -0.2
v -0.3 0.1 -0.2
v -0.3 0.5 -0.2
v -0.3 0.6 -0.2
v -0.3 2.3 -0.2
v -0.3 2.4 -0.2
v -0.3 2.5 -0.2
v -0.1 0 -0.2
v -0.1 0.1 -0.2
v -0.1 0.5 -0.2
v 0.1 0 -0.2
v 0.1 0.1 -0.2
v 0.1 0.5 -0.2
v 0.3 0 -0.2
v 0.3 0.1 -0.2
v 0.3 0.5 -0.2
v 0.3 0.6 -0.2
v 0.3 2.3 -0.2
v 0.3 2.4 -0.2
v 0.3 2.5 -0.2
v 0.4 0.5 -0.2
v 0.4 0.6 -0.2
v 0.4 0.9 -0.2
v 0.4 1 -0.2
v 0.4 1.5 -0.2
v 0.4 1.6 -0.2
v 0.4 2.3 -0.2
v 0.4 2.4 -0.2
v 0.5 1 -0.2
v 0.5 1.5 -0.2
v 0.5 1.6 -0.2
v 0.6 0.9 -0.2
v 0.6 1.5 -0.2
v -0.4 0.6 -0.3
v -0.4 1.6 -0.3
v -0.4 1.8 -0.3
v -0.4 2.3 -0.3
v -0.3 0.5 -0.3
v -0.3 0.6 -0.3
v -0.3 1.6 -0.3
v -0.3 1.7 -0.3
v -0.3 1.8 -0.3
v -0.3 2.3 -0.3
v -0.3 2.4 -0.3
v -0.2 0.6 -0.3
v -0.2 0.7 -0.3
v -0.2 1.6 -0.3
v -0.2 1.7 -0.3
v -0.1 0.5 -0.3
v -0.1 0.6 -0.3
v -0.1 0.7 -0.3
v -0.1 0.9 -0.3
v 0 0.5 -0.3
v 0 0.6 -0.3
v 0 0.7 -0.3
v 0 0.9 -0.3
v 0.1 0.6 -0.3
v 0.1 0.7 -0.3
v 0.2 1.6 -0.3
v 0.2 1.7 -0.3
v 0.3 0.5 -0.3
v 0.3 0.6 -0.3
v 0.3 1.6 -0.3
v 0.3 1.7 -0.3
v 0.3 1.8 -0.3
v 0.3 2.3 -0.3
v 0.3 2.4 -0.3
v 0.4 0.6 -0.3
v 0.4 1.6 -0.3
v 0.4 1.8 -0.3
v 0.4 2.3 -0.3
v -0.3 1.8 -0.4
v -0.3 2.3 -0.4
v 0.3 1.8 -0.4
v 0.3 2.3 -0.4
v -0.3 0 0.2
v -0.1 0 0.2
v 0.1 0 0.2
v 0.3 0 0.2
v -0.3 0 -0.2
v -0.1 0 -0.2
v 0.1 0 -0.2
v 0.3 0 -0.2
v -0.3 0.5 0.2
v 0.3 0.5 0.2
v -0.4 0.5 0.1
v -0.3 0.5 0.1
v -0.1 0.5 0.1
v 0.1 0.5 0.1
v 0.3 0.5 0.1
v 0.4 0.5 0.1
v -0.4 0.5 -0.2
v -0.3 0.5 -0.2
v -0.1 0.5 -0.2
v 0 0.5 -0.2
v 0.1 0.5 -0.2
v 0.3 0.5 -0.2
v 0.4 0.5 -0.2
v -0.3 0.5 -0.3
v -0.1 0.5 -0.3
v 0 0.5 -0.3
v 0.3 0.5 -0.3
v -0.4 0.6 0.2
v -0.3 0.6 0.2
v 0.3 0.6 0.2
v 0.4 0.6 0.2
v -0.4 0.6 0.1
v -0.3 0.6 0.1
v 0.3 0.6 0.1
v 0.4 0.6 0.1
v -0.4 0.6 -0.2
v -0.3 0.6 -0.2
v 0.3 0.6 -0.2
v 0.4 0.6 -0.2
v -0.4 0.6 -0.3
v -0.3 0.6 -0.3
v 0.3 0.6 -0.3
v 0.4 0.6 -0.3
v -0.1 0.7 0.1
v 0.1 0.7 0.1
v -0.1 0.7 0
v -0.1 0.7 -0.2
v 0.1 0.7 -0.2
v -0.6 0.8 0
v -0.4 0.8 0
v 0.4 0.8 0
v 0.6 0.8 0
v -0.6 0.8 -0.1
v -0.4 0.8 -0.1
v 0.4 0.8 -0.1
v 0.6 0.8 -0.1
v -0.6 0.9 0.1
v -0.4 0.9 0.1
v 0.4 0.9 0.1
v 0.6 0.9 0.1
v -0.6 0.9 0
v -0.4 0.9 0
v 0.4 0.9 0
v 0.6 0.9 0
v -0.6 0.9 -0.1
v -0.4 0.9 -0.1
v 0.4 0.9 -0.1
v 0.6 0.9 -0.1
v -0.6 0.9 -0.2
v -0.4 0.9 -0.2
v 0.4 0.9 -0.2
v 0.6 0.9 -0.2
v -0.4 1.7 0.3
v -0.1 1.7 0.3
v 0.1 1.7 0.3
v 0.4 1.7 0.3
v -0.4 1.7 0.2
v -0.3 1.7 0.2
v -0.2 1.7 0.2
v -0.1 1.7 0.2
v 0.1 1.7 0.2
v 0.2 1.7 0.2
v 0.3 1.7 0.2
v 0.4 1.7 0.2
v -0.3 1.7 0.1
v 0.3 1.7 0.1
v -0.4 1.7 0
v -0.3 1.7 0
v 0.3 1.7 0
v 0.4 1.7 0
v -0.4 1.8 0
v -0.3 1.8 0
v 0.3 1.8 0
v 0.4 1.8 0
v -0.4 1.8 -0.3
v -0.3 1.8 -0.3
v 0.3 1.8 -0.3
v 0.4 1.8 -0.3
v -0.3 1.8 -0.4
v 0.3 1.8 -0.4
v -0.3 2.2 0.6
v 0.3 2.2 0.6
v -0.3 2.2 0.3
v 0.3 2.2 0.3
v -0.4 2.3 0.6
v -0.3 2.3 0.6
v 0.3 2.3 0.6
v 0.4 2.3 0.6
v -0.4 2.3 0.3
v -0.3 2.3 0.3
v 0.3 2.3 0.3
v 0.4 2.3 0.3
v -0.3 0.1 0.2
v -0.1 0.1 0.2
v 0.1 0.1 0.2
v 0.3 0.1 0.2
v -0.3 0.1 0.1
v -0.1 0.1 0.1
v 0.1 0.1 0.1
v 0.3 0.1 0.1
v -0.6 1.5 0.1
v -0.5 1.5 0.1
v 0.5 1.5 0.1
v 0.6 1.5 0.1
v -0.6 1.5 -0.2
v -0.5 1.5 -0.2
v 0.5 1.5 -0.2
v 0.6 1.5 -0.2
v -0.4 1.6 0.2
v -0.3 1.6 0.2
v 0.3 1.6 0.2
v 0.4 1.6 0.2
v -0.5 1.6 0.1
v -0.4 1.6 0.1
v -0.3 1.6 0.1
v 0.3 1.6 0.1
v 0.4 1.6 0.1
v 0.5 1.6 0.1
v -0.5 1.6 -0.2
v -0.4 1.6 -0.2
v -0.3 1.6 -0.2
v 0.3 1.6 -0.2
v 0.4 1.6 -0.2
v 0.5 1.6 -0.2
v -0.4 1.6 -0.3
v -0.3 1.6 -0.3
v 0.3 1.6 -0.3
v 0.4 1.6 -0.3
v -0.4 2.3 -0.2
v -0.3 2.3 -0.2
v 0.3 2.3 -0.2
v 0.4 2.3 -0.2
v -0.4 2.3 -0.3
v -0.3 2.3 -0.3
v 0.3 2.3 -0.3
v 0.4 2.3 -0.3
v -0.3 2.3 -0.4
v 0.3 2.3 -0.4
v -0.4 2.4 0.6
v -0.3 2.4 0.6
v 0.3 2.4 0.6
v 0.4 2.4 0.6
v -0.4 2.4 -0.2
v -0.3 2.4 -0.2
v 0.3 2.4 -0.2
v 0.4 2.4 -0.2
v -0.3 2.4 -0.3
v 0.3 2.4 -0.3
v -0.3 2.5 0.6
v 0.3 2.5 0.6
v -0.2 2.5 0.5
v 0.2 2.5 0.5
v -0.2 2.5 -0.1
v 0.2 2.5 -0.1
v -0.3 2.5 -0.2
v 0.3 2.5 -0.2
v -0.2 2.6 0.5
v 0.2 2.6 0.5
v -0.2 2.6 -0.1
v 0.2 2.6 -0.1

# faces
f 4/2/1 2/2/1 1/2/1
f 5/2/1 2/2/1 4/2/1
f 7/10/1 4/10/1 3/10/1
f 7/10/1 6/10/1 5/10/1
f 7/10/1 5/10/1 4/10/1
f 8/10/1 6/10/1 7/10/1
f 9/10/1 7/10/1 3/10/1
f 9/9/1 8/9/1 7/9/1
f 10/10/1 6/10/1 8/10/1
f 10/9/1 8/9/1 9/9/1
f 11/10/1 9/10/1 3/10/1
f 11/10/1 10/10/1 9/10/1
f 12/10/1 6/10/1 10/10/1
f 12/10/1 10/10/1 11/10/1
f 15/10/1 14/10/1 13/10/1
f 16/10/1 14/10/1 15/10/1
f 20/10/1 18/10/1 17/10/1
f 21/10/1 18/10/1 20/10/1
f 23/9/1 21/9/1 20/9/1
f 24/9/1 21/9/1 23/9/1
f 25/10/1 20/10/1 19/10/1
f 25/9/1 23/9/1 20/9/1
f 26/9/1 23/9/1 25/9/1
f 27/9/1 21/9/1 24/9/1
f 28/10/1 22/10/1 21/10/1
f 28/9/1 21/9/1 27/9/1
f 29/10/1 25/10/1 19/10/1
f 30/10/1 22/10/1 28/10/1
f 31/10/1 29/10/1 19/10/1
f 32/10/1 22/10/1 30/10/1
f 33/10/1 31/10/1 19/10/1
f 34/10/1 31/10/1 33/10/1
f 35/10/1 22/10/1 32/10/1
f 36/10/1 22/10/1 35/10/1
f 40/2/1 38/2/1 37/2/1
f 40/3/1 39/3/1 38/3/1
f 41/3/1 39/3/1 40/3/1
f 42/3/1 39/3/1 41/3/1
f 44/2/1 40/2/1 37/2/1
f 44/2/1 41/2/1 40/2/1
f 45/3/1 43/3/1 42/3/1
f 45/2/1 41/2/1 44/2/1
f 45/3/1 42/3/1 41/3/1
f 47/3/1 45/3/1 44/3/1
f 48/3/1 43/3/1 45/3/1
f 48/3/1 45/3/1 47/3/1
f 49/3/1 43/3/1 48/3/1
f 50/3/1 47/3/1 46/3/1
f 50/3/1 48/3/1 47/3/1
f 51/3/1 48/3/1 50/3/1
f 54/6/1 53/6/1 52/6/1
f 55/6/1 53/6/1 54/6/1
f 56/6/1 53/6/1 55/6/1
f 58/9/1 56/9/1 55/9/1
f 59/9/1 56/9/1 58/9/1
f 61/8/1 58/8/1 57/8/1
f 62/8/1 58/8/1 61/8/1
f 63/10/1 60/10/1 59/10/1
f 64/10/1 60/10/1 63/10/1
f 69/10/1 66/10/1 65/10/1
f 70/9/1 67/9/1 66/9/1
f 70/10/1 66/10/1 69/10/1
f 71/9/1 67/9/1 70/9/1
f 72/10/1 68/10/1 67/10/1
f 72/9/1 67/9/1 71/9/1
f 73/10/1 68/10/1 72/10/1
f 74/4/1 73/4/1 72/4/1
f 74/4/1 72/4/1 71/4/1
f 75/4/1 73/4/1 74/4/1
f 79/3/1 78/3/1 77/3/1
f 80/3/1 78/3/1 79/3/1
f 82/3/1 76/3/1 75/3/1
f 83/3/1 76/3/1 82/3/1
f 85/3/1 82/3/1 81/3/1
f 86/3/1 82/3/1 85/3/1
f 87/3/1 85/3/1 84/3/1
f 88/3/1 85/3/1 87/3/1
f 91/3/1 90/3/1 89/3/1
f 92/3/1 90/3/1 91/3/1
f 95/6/1 94/6/1 93/6/1
f 96/6/1 94/6/1 95/6/1
f 97/6/1 94/6/1 96/6/1
f 98/9/1 97/9/1 96/9/1
f 99/9/1 97/9/1 98/9/1
f 100/10/1 99/10/1 98/10/1
f 101/10/1 99/10/1 100/10/1
f 102/6/2 103/6/2 104/6/2
f 104/6/2 103/6/2 105/6/2
f 105/6/2 103/6/2 106/6/2
f 105/9/2 106/9/2 107/9/2
f 107/9/2 106/9/2 108/9/2
f 108/9/2 106/9/2 109/9/2
f 108/10/2 109/10/2 110/10/2
f 107/9/2 108/9/2 111/9/2
f 108/10/2 110/10/2 112/10/2
f 111/9/2 108/9/2 112/9/2
f 112/10/2 110/10/2 113/10/2
f 114/3/2 115/3/2 116/3/2
f 116/3/2 115/3/2 117/3/2
f 118/6/2 119/6/2 120/6/2
f 120/6/2 119/6/2 121/6/2
f 121/6/2 119/6/2 122/6/2
f 121/9/2 122/9/2 124/9/2
f 124/9/2 122/9/2 125/9/2
f 123/8/2 124/8/2 127/8/2
f 127/8/2 124/8/2 128/8/2
f 125/10/2 126/10/2 129/10/2
f 129/10/2 126/10/2 130/10/2
f 131/10/2 132/10/2 135/10/2
f 132/9/2 133/9/2 136/9/2
f 135/10/2 132/10/2 136/10/2
f 136/9/2 133/9/2 137/9/2
f 133/10/2 134/10/2 138/10/2
f 137/9/2 133/9/2 138/9/2
f 138/10/2 134/10/2 139/10/2
f 138/4/2 139/4/2 140/4/2
f 137/4/2 138/4/2 140/4/2
f 140/4/2 139/4/2 141/4/2
f 143/3/2 144/3/2 145/3/2
f 145/3/2 144/3/2 146/3/2
f 141/3/2 142/3/2 148/3/2
f 148/3/2 142/3/2 149/3/2
f 147/3/2 148/3/2 151/3/2
f 151/3/2 148/3/2 152/3/2
f 150/3/2 151/3/2 153/3/2
f 153/3/2 151/3/2 154/3/2
f 155/10/2 156/10/2 158/10/2
f 158/10/2 156/10/2 159/10/2
f 158/9/2 159/9/2 161/9/2
f 161/9/2 159/9/2 162/9/2
f 157/10/2 158/10/2 163/10/2
f 158/9/2 161/9/2 163/9/2
f 163/9/2 161/9/2 164/9/2
f 162/9/2 159/9/2 165/9/2
f 159/10/2 160/10/2 166/10/2
f 165/9/2 159/9/2 166/9/2
f 157/10/2 163/10/2 167/10/2
f 166/10/2 160/10/2 168/10/2
f 157/10/2 167/10/2 169/10/2
f 168/10/2 160/10/2 170/10/2
f 157/10/2 169/10/2 171/10/2
f 171/10/2 169/10/2 172/10/2
f 170/10/2 160/10/2 173/10/2
f 173/10/2 160/10/2 174/10/2
f 175/2/2 176/2/2 178/2/2
f 176/3/2 177/3/2 178/3/2
f 178/3/2 177/3/2 179/3/2
f 179/3/2 177/3/2 180/3/2
f 175/2/2 178/2/2 182/2/2
f 178/2/2 179/2/2 182/2/2
f 180/3/2 181/3/2 183/3/2
f 182/2/2 179/2/2 183/2/2
f 179/3/2 180/3/2 183/3/2
f 182/3/2 183/3/2 185/3/2
f 183/3/2 181/3/2 186/3/2
f 185/3/2 183/3/2 186/3/2
f 186/3/2 181/3/2 187/3/2
f 184/3/2 185/3/2 188/3/2
f 185/3/2 186/3/2 188/3/2
f 188/3/2 186/3/2 189/3/2
f 190/10/2 191/10/2 192/10/2
f 192/10/2 191/10/2 193/10/2
f 194/2/2 195/2/2 197/2/2
f 197/2/2 195/2/2 198/2/2
f 196/10/2 197/10/2 200/10/2
f 198/10/2 199/10/2 200/10/2
f 197/10/2 198/10/2 200/10/2
f 200/10/2 199/10/2 201/10/2
f 196/10/2 200/10/2 202/10/2
f 200/9/2 201/9/2 202/9/2
f 201/10/2 199/10/2 203/10/2
f 202/9/2 201/9/2 203/9/2
f 196/10/2 202/10/2 204/10/2
f 202/10/2 203/10/2 204/10/2
f 203/10/2 199/10/2 205/10/2
f 204/10/2 203/10/2 205/10/2
f 209/3/3 207/3/3 206/3/3
f 210/3/3 207/3/3 209/3/3
f 212/3/3 209/3/3 208/3/3
f 212/3/3 211/3/3 210/3/3
f 212/3/3 210/3/3 209/3/3
f 213/3/3 211/3/3 212/3/3
f 214/3/3 211/3/3 213/3/3
f 215/3/3 211/3/3 214/3/3
f 216/3/3 214/3/3 213/3/3
f 217/3/3 214/3/3 216/3/3
f 220/3/3 219/3/3 218/3/3
f 221/3/3 219/3/3 220/3/3
f 225/2/3 223/2/3 222/2/3
f 225/3/3 224/3/3 223/3/3
f 226/3/3 224/3/3 225/3/3
f 227/3/3 224/3/3 226/3/3
f 228/2/3 225/2/3 222/2/3
f 228/2/3 226/2/3 225/2/3
f 229/2/3 226/2/3 228/2/3
f 230/2/3 226/2/3 229/2/3
f 231/2/3 228/2/3 222/2/3
f 232/2/3 228/2/3 231/2/3
f 233/11/3 229/11/3 228/11/3
f 233/2/3 228/2/3 232/2/3
f 234/5/3 230/5/3 229/5/3
f 234/11/3 229/11/3 233/11/3
f 235/2/3 226/2/3 230/2/3
f 235/5/3 230/5/3 234/5/3
f 236/7/3 232/7/3 231/7/3
f 237/2/3 234/2/3 233/2/3
f 237/7/3 232/7/3 236/7/3
f 237/2/3 233/2/3 232/2/3
f 237/2/3 235/2/3 234/2/3
f 238/2/3 235/2/3 237/2/3
f 239/2/3 235/2/3 238/2/3
f 240/2/3 226/2/3 235/2/3
f 240/2/3 235/2/3 239/2/3
f 241/11/3 239/11/3 238/11/3
f 241/2/3 237/2/3 236/2/3
f 241/2/3 238/2/3 237/2/3
f 242/5/3 240/5/3 239/5/3
f 242/11/3 239/11/3 241/11/3
f 243/2/3 226/2/3 240/2/3
f 243/5/3 240/5/3 242/5/3
f 244/2/3 242/2/3 241/2/3
f 244/2/3 243/2/3 242/2/3
f 245/2/3 226/2/3 243/2/3
f 245/2/3 243/2/3 244/2/3
f 247/2/3 244/2/3 241/2/3
f 247/2/3 241/2/3 236/2/3
f 248/3/3 246/3/3 245/3/3
f 248/2/3 244/2/3 247/2/3
f 248/3/3 245/3/3 244/3/3
f 249/3/3 246/3/3 248/3/3
f 255/10/3 251/10/3 250/10/3
f 256/10/3 251/10/3 255/10/3
f 257/10/3 251/10/3 256/10/3
f 259/8/3 255/8/3 254/8/3
f 259/10/3 256/10/3 255/10/3
f 260/9/3 257/9/3 256/9/3
f 260/10/3 256/10/3 259/10/3
f 261/9/3 257/9/3 260/9/3
f 262/10/3 258/10/3 257/10/3
f 262/9/3 257/9/3 261/9/3
f 263/10/3 258/10/3 262/10/3
f 264/6/3 253/6/3 252/6/3
f 265/6/3 253/6/3 264/6/3
f 266/10/3 261/10/3 260/10/3
f 266/8/3 260/8/3 259/8/3
f 267/9/3 262/9/3 261/9/3
f 267/10/3 261/10/3 266/10/3
f 268/9/3 262/9/3 267/9/3
f 269/9/3 262/9/3 268/9/3
f 270/9/3 262/9/3 269/9/3
f 271/9/3 262/9/3 270/9/3
f 272/9/3 262/9/3 271/9/3
f 273/8/3 263/8/3 262/8/3
f 273/9/3 262/9/3 272/9/3
f 274/8/3 263/8/3 273/8/3
f 275/8/3 266/8/3 259/8/3
f 275/8/3 267/8/3 266/8/3
f 276/10/3 268/10/3 267/10/3
f 276/8/3 267/8/3 275/8/3
f 277/1/3 269/1/3 268/1/3
f 277/10/3 268/10/3 276/10/3
f 278/10/3 270/10/3 269/10/3
f 278/1/3 269/1/3 277/1/3
f 279/1/3 271/1/3 270/1/3
f 279/10/3 270/10/3 278/10/3
f 280/10/3 272/10/3 271/10/3
f 280/1/3 271/1/3 279/1/3
f 281/8/3 274/8/3 273/8/3
f 281/10/3 272/10/3 280/10/3
f 281/8/3 273/8/3 272/8/3
f 282/8/3 274/8/3 281/8/3
f 285/8/3 259/8/3 254/8/3
f 285/8/3 275/8/3 259/8/3
f 286/10/3 276/10/3 275/10/3
f 286/8/3 275/8/3 285/8/3
f 287/9/3 280/9/3 279/9/3
f 287/10/3 276/10/3 286/10/3
f 287/9/3 279/9/3 278/9/3
f 287/9/3 282/9/3 281/9/3
f 287/9/3 281/9/3 280/9/3
f 287/9/3 277/9/3 276/9/3
f 287/9/3 278/9/3 277/9/3
f 288/9/3 282/9/3 287/9/3
f 289/8/3 274/8/3 282/8/3
f 289/9/3 282/9/3 288/9/3
f 290/8/3 274/8/3 289/8/3
f 291/8/3 274/8/3 290/8/3
f 292/9/3 288/9/3 287/9/3
f 292/9/3 287/9/3 286/9/3
f 292/1/3 289/1/3 288/1/3
f 293/9/3 290/9/3 289/9/3
f 293/1/3 289/1/3 292/1/3
f 294/8/3 291/8/3 290/8/3
f 294/9/3 290/9/3 293/9/3
f 295/8/3 291/8/3 294/8/3
f 296/6/3 284/6/3 283/6/3
f 297/6/3 284/6/3 296/6/3
f 298/8/3 285/8/3 254/8/3
f 299/10/3 286/10/3 285/10/3
f 299/8/3 285/8/3 298/8/3
f 300/9/3 293/9/3 292/9/3
f 300/10/3 286/10/3 299/10/3
f 300/9/3 292/9/3 286/9/3
f 300/9/3 294/9/3 293/9/3
f 301/10/3 295/10/3 294/10/3
f 301/9/3 294/9/3 300/9/3
f 302/10/3 295/10/3 301/10/3
f 303/10/3 301/10/3 300/10/3
f 303/10/3 300/10/3 299/10/3
f 304/10/3 301/10/3 303/10/3
f 307/10/3 306/10/3 305/10/3
f 308/10/3 306/10/3 307/10/3
f 312/10/3 307/10/3 305/10/3
f 313/9/3 308/9/3 307/9/3
f 313/10/3 307/10/3 312/10/3
f 314/10/3 309/10/3 308/10/3
f 314/9/3 308/9/3 313/9/3
f 315/10/3 309/10/3 314/10/3
f 317/10/3 311/10/3 310/10/3
f 318/10/3 311/10/3 317/10/3
f 319/9/3 317/9/3 316/9/3
f 320/9/3 317/9/3 319/9/3
f 323/9/3 322/9/3 321/9/3
f 324/9/3 322/9/3 323/9/3
f 326/10/3 325/10/3 324/10/3
f 327/10/3 325/10/3 326/10/3
f 332/10/3 329/10/3 328/10/3
f 332/9/3 330/9/3 329/9/3
f 333/10/3 331/10/3 330/10/3
f 333/9/3 330/9/3 332/9/3
f 334/10/3 331/10/3 333/10/3
f 335/10/3 332/10/3 328/10/3
f 335/10/3 333/10/3 332/10/3
f 336/10/3 333/10/3 335/10/3
f 339/2/3 338/2/3 337/2/3
f 340/2/3 338/2/3 339/2/3
f 343/2/3 342/2/3 341/2/3
f 344/2/3 342/2/3 343/2/3
f 348/8/3 346/8/3 345/8/3
f 349/10/3 347/10/3 346/10/3
f 349/8/3 346/8/3 348/8/3
f 350/10/3 349/10/3 348/10/3
f 351/10/3 347/10/3 349/10/3
f 351/10/3 349/10/3 350/10/3
f 352/8/4 353/8/4 354/8/4
f 354/8/4 353/8/4 355/8/4
f 356/3/4 357/3/4 358/3/4
f 358/3/4 357/3/4 359/3/4
f 360/3/4 361/3/4 362/3/4
f 362/3/4 361/3/4 363/3/4
f 364/2/4 365/2/4 366/2/4
f 366/2/4 365/2/4 367/2/4
f 368/3/4 369/3/4 370/3/4
f 370/3/4 369/3/4 371/3/4
f 372/2/4 373/2/4 374/2/4
f 374/2/4 373/2/4 375/2/4
f 376/10/4 377/10/4 378/10/4
f 378/10/4 377/10/4 379/10/4
f 376/10/4 378/10/4 383/10/4
f 378/9/4 379/9/4 384/9/4
f 383/10/4 378/10/4 384/10/4
f 379/10/4 380/10/4 385/10/4
f 384/9/4 379/9/4 385/9/4
f 385/10/4 380/10/4 386/10/4
f 381/10/4 382/10/4 391/10/4
f 391/10/4 382/10/4 392/10/4
f 387/3/4 388/3/4 393/3/4
f 393/3/4 388/3/4 394/3/4
f 389/6/4 390/6/4 396/6/4
f 390/9/4 391/9/4 397/9/4
f 396/6/4 390/6/4 397/6/4
f 397/9/4 391/9/4 398/9/4
f 399/6/4 400/6/4 402/6/4
f 400/9/4 401/9/4 403/9/4
f 402/6/4 400/6/4 403/6/4
f 403/9/4 401/9/4 404/9/4
f 394/3/4 395/3/4 407/3/4
f 407/3/4 395/3/4 408/3/4
f 404/10/4 405/10/4 409/10/4
f 409/10/4 405/10/4 410/10/4
f 406/3/4 407/3/4 415/3/4
f 415/3/4 407/3/4 416/3/4
f 411/10/4 412/10/4 417/10/4
f 412/9/4 413/9/4 417/9/4
f 413/10/4 414/10/4 418/10/4
f 417/9/4 413/9/4 418/9/4
f 418/10/4 414/10/4 419/10/4
f 411/10/4 417/10/4 420/10/4
f 417/10/4 418/10/4 420/10/4
f 420/10/4 418/10/4 421/10/4
f 422/10/4 423/10/4 427/10/4
f 427/10/4 423/10/4 428/10/4
f 424/3/4 425/3/4 430/3/4
f 430/3/4 425/3/4 431/3/4
f 426/10/4 427/10/4 433/10/4
f 427/9/4 428/9/4 433/9/4
f 433/9/4 428/9/4 434/9/4
f 428/10/4 429/10/4 435/10/4
f 434/9/4 428/9/4 435/9/4
f 429/4/4 430/4/4 436/4/4
f 435/10/4 429/10/4 436/10/4
f 433/10/4 434/10/4 437/10/4
f 426/10/4 433/10/4 437/10/4
f 437/10/4 434/10/4 438/10/4
f 434/9/4 435/9/4 439/9/4
f 438/10/4 434/10/4 439/10/4
f 435/9/4 436/9/4 439/9/4
f 439/9/4 436/9/4 440/9/4
f 437/8/4 438/8/4 441/8/4
f 438/10/4 439/10/4 442/10/4
f 441/8/4 438/8/4 442/8/4
f 439/10/4 440/10/4 442/10/4
f 442/10/4 440/10/4 443/10/4
f 440/9/4 436/9/4 444/9/4
f 443/10/4 440/10/4 444/10/4
f 442/10/4 443/10/4 445/10/4
f 441/10/4 442/10/4 445/10/4
f 443/9/4 444/9/4 446/9/4
f 445/10/4 443/10/4 446/10/4
f 444/9/4 436/9/4 447/9/4
f 446/9/4 444/9/4 447/9/4
f 445/9/4 446/9/4 447/9/4
f 436/4/4 430/4/4 448/4/4
f 447/9/4 436/9/4 448/9/4
f 441/10/4 445/10/4 449/10/4
f 445/9/4 447/9/4 450/9/4
f 449/10/4 445/10/4 450/10/4
f 447/10/4 448/10/4 451/10/4
f 450/9/4 447/9/4 451/9/4
f 448/4/4 430/4/4 452/4/4
f 451/10/4 448/10/4 452/10/4
f 452/4/4 430/4/4 453/4/4
f 431/3/4 432/3/4 454/3/4
f 454/3/4 432/3/4 455/3/4
f 450/10/4 451/10/4 456/10/4
f 456/10/4 451/10/4 457/10/4
f 453/3/4 454/3/4 458/3/4
f 458/3/4 454/3/4 459/3/4
f 460/3/4 461/3/4 462/3/4
f 462/3/4 461/3/4 463/3/4
f 468/6/5 465/6/5 464/6/5
f 469/6/5 465/6/5 468/6/5
f 470/6/5 467/6/5 466/6/5
f 471/6/5 467/6/5 470/6/5
f 475/8/5 473/8/5 472/8/5
f 476/8/5 473/8/5 475/8/5
f 477/8/5 473/8/5 476/8/5
f 478/8/5 473/8/5 477/8/5
f 480/10/5 475/10/5 474/10/5
f 481/10/5 475/10/5 480/10/5
f 485/10/5 479/10/5 478/10/5
f 486/10/5 479/10/5 485/10/5
f 487/10/5 482/10/5 481/10/5
f 488/8/5 483/8/5 482/8/5
f 488/10/5 482/10/5 487/10/5
f 489/10/5 484/10/5 483/10/5
f 489/8/5 483/8/5 488/8/5
f 489/10/5 485/10/5 484/10/5
f 490/10/5 485/10/5 489/10/5
f 495/10/5 492/10/5 491/10/5
f 496/10/5 492/10/5 495/10/5
f 497/10/5 494/10/5 493/10/5
f 498/10/5 494/10/5 497/10/5
f 503/10/5 500/10/5 499/10/5
f 504/10/5 500/10/5 503/10/5
f 505/10/5 502/10/5 501/10/5
f 506/10/5 502/10/5 505/10/5
f 509/9/5 508/9/5 507/9/5
f 510/9/5 508/9/5 509/9/5
f 511/9/5 508/9/5 510/9/5
f 516/2/5 513/2/5 512/2/5
f 517/2/5 513/2/5 516/2/5
f 518/2/5 515/2/5 514/2/5
f 519/2/5 515/2/5 518/2/5
f 524/10/5 521/10/5 520/10/5
f 525/10/5 521/10/5 524/10/5
f 526/10/5 523/10/5 522/10/5
f 527/10/5 523/10/5 526/10/5
f 532/10/5 529/10/5 528/10/5
f 533/10/5 529/10/5 532/10/5
f 534/10/5 531/10/5 530/10/5
f 535/10/5 531/10/5 534/10/5
f 540/2/5 537/2/5 536/2/5
f 541/2/5 537/2/5 540/2/5
f 542/2/5 537/2/5 541/2/5
f 543/7/5 538/7/5 537/7/5
f 543/2/5 537/2/5 542/2/5
f 544/2/5 539/2/5 538/2/5
f 544/7/5 538/7/5 543/7/5
f 545/2/5 539/2/5 544/2/5
f 546/2/5 539/2/5 545/2/5
f 547/2/5 539/2/5 546/2/5
f 548/3/5 541/3/5 540/3/5
f 549/3/5 547/3/5 546/3/5
f 550/3/5 548/3/5 540/3/5
f 551/3/5 548/3/5 550/3/5
f 552/3/5 547/3/5 549/3/5
f 553/3/5 547/3/5 552/3/5
f 558/3/5 555/3/5 554/3/5
f 559/3/5 555/3/5 558/3/5
f 560/3/5 557/3/5 556/3/5
f 561/3/5 557/3/5 560/3/5
f 562/3/5 560/3/5 559/3/5
f 563/3/5 560/3/5 562/3/5
f 566/3/5 565/3/5 564/3/5
f 567/3/5 565/3/5 566/3/5
f 572/3/5 569/3/5 568/3/5
f 573/3/5 569/3/5 572/3/5
f 574/3/5 571/3/5 570/3/5
f 575/3/5 571/3/5 574/3/5
f 576/6/6 577/6/6 580/6/6
f 580/6/6 577/6/6 581/6/6
f 578/6/6 579/6/6 582/6/6
f 582/6/6 579/6/6 583/6/6
f 584/10/6 585/10/6 588/10/6
f 588/10/6 585/10/6 589/10/6
f 586/10/6 587/10/6 590/10/6
f 590/10/6 587/10/6 591/10/6
f 592/10/6 593/10/6 597/10/6
f 597/10/6 593/10/6 598/10/6
f 594/10/6 595/10/6 599/10/6
f 599/10/6 595/10/6 600/10/6
f 597/10/6 598/10/6 602/10/6
f 596/10/6 597/10/6 602/10/6
f 602/10/6 598/10/6 603/10/6
f 603/10/6 598/10/6 604/10/6
f 600/10/6 601/10/6 605/10/6
f 599/10/6 600/10/6 605/10/6
f 605/10/6 601/10/6 606/10/6
f 606/10/6 601/10/6 607/10/6
f 603/10/6 604/10/6 608/10/6
f 608/10/6 604/10/6 609/10/6
f 605/10/6 606/10/6 610/10/6
f 610/10/6 606/10/6 611/10/6
f 612/3/6 613/3/6 616/3/6
f 616/3/6 613/3/6 617/3/6
f 614/3/6 615/3/6 618/3/6
f 618/3/6 615/3/6 619/3/6
f 617/3/6 618/3/6 620/3/6
f 620/3/6 618/3/6 621/3/6
f 622/3/6 623/3/6 626/3/6
f 626/3/6 623/3/6 627/3/6
f 624/3/6 625/3/6 628/3/6
f 628/3/6 625/3/6 629/3/6
f 627/3/6 628/3/6 630/3/6
f 630/3/6 628/3/6 631/3/6
f 632/3/6 633/3/6 634/3/6
f 634/3/6 633/3/6 635/3/6
f 632/3/6 634/3/6 636/3/6
f 635/3/6 633/3/6 637/3/6
f 632/3/6 636/3/6 638/3/6
f 636/3/6 637/3/6 638/3/6
f 637/3/6 633/3/6 639/3/6
f 638/3/6 637/3/6 639/3/6
f 640/3/6 641/3/6 642/3/6
f 642/3/6 641/3/6 643/3/6
